<mxfile host="app.diagrams.net" modified="2024-02-22T06:57:45.043Z" agent="Mozilla/5.0 (Macintosh; Intel Mac OS X 10_15_7) AppleWebKit/537.36 (KHTML, like Gecko) Chrome/121.0.0.0 Safari/537.36 Edg/121.0.0.0" etag="nAXdCiGjjEEHhJ3o-aGV" version="23.1.5" type="github">
  <diagram id="prtHgNgQTEPvFCAcTncT" name="Page-1">
    <mxGraphModel dx="977" dy="537" grid="1" gridSize="10" guides="1" tooltips="1" connect="1" arrows="1" fold="1" page="1" pageScale="1" pageWidth="827" pageHeight="1169" math="0" shadow="0">
      <root>
        <mxCell id="0" />
        <mxCell id="1" parent="0" />
        <mxCell id="0UQqs-vpr0hep9xXlx3u-1" value="凤悦集团结算发奖励" style="swimlane;childLayout=stackLayout;resizeParent=1;resizeParentMax=0;startSize=20;html=1;" vertex="1" parent="1">
          <mxGeometry x="60" y="20" width="600" height="480" as="geometry" />
        </mxCell>
        <mxCell id="0UQqs-vpr0hep9xXlx3u-5" value="业务端" style="swimlane;startSize=20;html=1;" vertex="1" parent="0UQqs-vpr0hep9xXlx3u-1">
          <mxGeometry y="20" width="120" height="460" as="geometry" />
        </mxCell>
        <mxCell id="0UQqs-vpr0hep9xXlx3u-2" value="结算适配器" style="swimlane;startSize=20;html=1;" vertex="1" parent="0UQqs-vpr0hep9xXlx3u-1">
          <mxGeometry x="120" y="20" width="240" height="460" as="geometry" />
        </mxCell>
        <mxCell id="0UQqs-vpr0hep9xXlx3u-3" value="会员系统" style="swimlane;startSize=20;html=1;" vertex="1" parent="0UQqs-vpr0hep9xXlx3u-1">
          <mxGeometry x="360" y="20" width="120" height="460" as="geometry" />
        </mxCell>
        <mxCell id="0UQqs-vpr0hep9xXlx3u-4" value="奖励系统" style="swimlane;startSize=20;html=1;" vertex="1" parent="0UQqs-vpr0hep9xXlx3u-1">
          <mxGeometry x="480" y="20" width="120" height="460" as="geometry" />
        </mxCell>
      </root>
    </mxGraphModel>
  </diagram>
</mxfile>
